<svg xmlns="http://www.w3.org/2000/svg" width="1406" height="1397" viewBox="0 0 1406 1397">
  <defs>
    <style>
      .cls-1 {
        fill: #fff;
        fill-rule: evenodd;
      }
    </style>
  </defs>
  <path id="Shape" class="cls-1" d="M1152.73,1528.15c-6.69-3.28-13.94-6.02-19.52-10.39-3.9-18.59,3.35-37.19,1.67-55.78-2.78-6.01,2.23-10.93,4.46-16.4,2.23,10.39,4.46,20.23,7.25,30.07,26.76-19.68,11.71-53.58,18.4-79.83-6.69,6.02-13.38,11.48-20.07,17.5-2.23-14.76,9.48-22.42,19.51-30.62,0-5.47-6.13-7.66-9.47-11.48-3.91,7.1-7.81,13.67-11.16,20.77-5.01-2.73-10.03-5.46-14.49-8.2,3.34-12.03,12.82-20.23,22.3-27.89h-10.04c0-18.59,5.58-36.08,13.39-53.58-5.58,0-16.17.55-21.75,0.55-2.23,9.84-6.13,18.59-10.03,27.88,2.78,4.38,6.13,9.3,8.92,13.67-1.12.55-3.91,1.1-5.02,1.64-2.79-7.11-6.69-13.67-8.36-20.78,5.57-13.67,15.05-25.7,22.3-38.82-6.14,2.19-17.84,7.66-23.98,9.84-2.78-5.46-6.13-11.48-8.92-16.95-4.46,1.64-8.92,3.28-13.94,4.92-1.11-18.04-9.47-34.44-23.97-45.38-3.9,3.83-7.8,8.2-12.27,12.03-6.69-12.58-12.82-25.7-18.39-38.28-2.79,2.74-6.14,5.47-8.92,8.21-4.46-8.75-9.48-16.96-18.4-22.42,2.23,6.56,6.13,18.59,8.36,25.15-11.71-7.66-12.82-22.42-17.84-33.9-10.035-9.3-18.957-19.14-28.434-28.44-17.842-19.13-22.3-45.93-38.47-65.61-7.248-9.3-18.956-11.48-28.992-16.41,2.788-.54,7.248-1.09,10.036-1.64-4.46-9.29-8.92-18.04-15.054-26.24,1.673-3.83,5.018-10.94,6.691-14.77-7.248-12.02-11.151-26.79-23.974-33.9-8.92-3.825-18.956-1.64-28.434-1.64,6.133,14.77,16.169,27.34,28.434,37.73,8.92,8.2,8.363,21.33,11.151,32.81-9.479-6.56-12.266-17.5-15.611-28.43-6.69-5.47-15.054-9.85-19.513-17.5-8.921,4.37-17.284-1.09-17.842-10.39-4.46-1.64-8.363-3.28-12.266-4.92,3.9,5.47,7.248,10.93,11.151,16.4-21.744-.54-34.01-20.78-51.85-29.525-15.611-10.936-42.93-19.138-35.682-43.2-5.018-2.188-15.054-7.109-20.071-9.3,4.46-1.64,13.38-4.374,17.841-6.015a176.667,176.667,0,0,0-31.779-16.95l-1.116,9.841c-3.345-7.655-5.575-16.4-15.053-15.857,0-1.64-.557-5.468-0.557-7.107a116.812,116.812,0,0,1-41.258-4.375c-3.9,1.641-11.151,5.468-15.054,7.108,2.788,2.734,7.807,8.749,10.036,11.483-16.726-3.281-33.452-10.936-50.735-6.015-10.036-3.827-20.629-5.468-30.107,0-6.691-2.187-12.823-4.374-18.956-6.562,8.921-6.014,16.726-13.669,19.513-24.605-23.416-5.468-45.717-20.232-70.248-15.858-16.726,2.188-30.107,12.03-45.16,18.045-16.726,1.093-33.452-1.094-50.178-1.641-27.877,7.656-56.31,12.03-83.629,21.872,23.973,4.375,48.5-1.64,72.479-4.375-6.133,28.435-42.373,29.528-66.347,30.075-17.841-6.015-34.567,4.375-49.62,12.576-40.143-16.951-67.461,48.666-107.046,21.872-18.4,9.3-35.682,21.325-52.408,33.906-20.071,6.01-40.142,12.57-56.869,25.15-16.725-.55-29.549,10.39-44.6,14.22,1.672,3.82,3.9,7.1,5.575,11.48,6.69,1.09,12.823,2.73,19.513,3.83,5.576-12.58,19.514-15.31,31.222-20.24-22.3,19.69-50.177,32.81-71.364,54.68-13.938.55-26.2,6.57-36.8,13.67,0.558,7.11,1.115,14.22,1.115,21.33-11.708,7.65-21.186-12.58-32.895-3.28,0,10.39,10.035,18.04,12.823,27.89-15.611,22.96-28.434,47.57-40.7,72.72,12.266-4.37,23.974-8.2,36.24-13.67a39.236,39.236,0,0,0-3.9-13.12c6.691-10.39,13.938-20.78,22.859-29.53,2.787,12.58-9.478,19.14-16.169,26.79,1.672,1.64,4.46,4.38,6.133,6.02,13.381-20.23,30.107-37.73,47.948-54.14,14.495,0.55,25.088-10.38,37.912-15.85-13.381,15.31-29.549,28.43-44.6,42.1-2.788,0-8.921.55-11.709,0.55,3.9,12.57-7.248,22.96-11.708,33.9l-6.691-1.09c3.345,4.92,6.691,10.38,10.035,15.31-5.018-2.19-10.035-4.38-15.611-7.11-2.788,3.28-8.92,9.29-11.708,12.03-1.115,8.2-2.23,16.95-5.576,24.6-6.132,13.67-22.859,22.42-23.416,38.28,3.9-8.2,7.248-18.59,18.956-12.58,3.9-5.47,8.363-10.39,12.266-15.85a55.649,55.649,0,0,0,9.478-1.1c-9.478,15.86-18.956,31.72-28.992,47.03-1.672-3.83-4.461-11.49-6.133-15.31-5.575,4.92-10.593,9.29-16.168,14.21,6.691,3.28,14.5,6.02,18.4,12.58-3.345,3.28-9.478,10.39-12.822,13.67-0.558,14.22-7.806,27.34-14.5,39.37-2.788-18.05-4.46-36.64-2.788-54.68,2.231-8.75-6.69-14.22-11.15-19.69-5.576,12.03-19.514,10.94-30.665,10.94-1.115-8.75-1.672-16.95-2.787-25.7-7.806,7.11-8.363,18.59-11.15,27.89-16.727,1.09-14.5,16.4-16.169,28.43,5.018,4.92,10.593,10.39,15.61,15.31,2.231-10.39,2.231-22.96,13.381-28.98,0.558,8.2.558,16.41,0.558,24.61,5.018-6.57,9.478-13.13,14.5-20.23-3.345-1.65-9.477-4.93-12.265-6.57,2.23-2.18,6.69-6.01,8.92-8.2,1.672-.55,4.46-1.09,6.133-1.64,6.69,14.22-1.673,30.62-9.478,43.2-7.806,2.19-13.382,8.2-16.726,15.31,4.46,3.28,8.92,6.56,13.938,9.84a83.661,83.661,0,0,1,1.672-23.51c3.346,2.19,10.036,6.01,13.939,8.2,0.557,10.94-10.036,18.59-12.823,28.43,7.8,7.11,13.381,15.86,15.053,26.25-7.806,14.22-12.266,29.53-15.61,45.39,3.9-3.83,12.264-11.49,16.168-14.77-9.478,35.54-9.478,72.18-16.726,107.72,3.9,30.07,3.9,60.7,8.363,90.77-4.461-6.01-7.248-14.76-15.611-15.31a161.888,161.888,0,0,1-1.115,16.4c-16.726-6.01-11.708-24.6-13.938-37.73,13.381-1.09,30.106-7.65,21.743-24.06-4.46,0-13.938.55-18.956,0.55-6.69-15.31-17.841-28.43-28.991-41.01-2.788,7.11-6.133,14.77-9.479,21.87,7.248,8.21,14.5,16.95,21.186,25.16-2.787,10.93-4.459,22.42-6.132,33.9,18.4,7.65,13.381,26.25,7.805,41.01,3.345,4.37,7.248,9.29,10.594,13.67,5.017-4.38,10.035-8.2,15.611-12.58,12.265,8.2,16.725,22.42,22.858,35-1.672,1.09-5.575,3.28-7.248,4.37-3.9-6.01-4.46-12.57-2.23-19.68l-11.708,3.28c2.788,11.48,3.345,23.51-6.133,32.26,4.461,4.92,8.921,9.29,13.939,14.22,11.15-14.22,13.38,2.18,5.575,8.74a31.247,31.247,0,0,0-20.071-9.29c0-2.74,1.114-8.2,1.114-10.94-7.805-12.03-15.61-23.51-26.76-33.35-5.018,13.12-7.806,27.34-10.036,41.55,3.345,0,10.593-.54,13.938-0.54,1.673,11.48,5.576,22.96,9.479,34.45,0,9.29-5.576,18.04-3.345,26.79,5.575,8.2,13.938,14.22,19.513,22.96,2.231,9.3,3.9,18.6,6.133,27.89,3.344-4.37,9.478-26.79,15.61-11.48,10.036,26.25,31.78,44.84,43.488,69.99,22.3,34.45,56.868,60.15,79.169,94.6,19.514,7.65,32.337,26.79,49.621,38.82,20.07,13.67,25.646,40.46,46.832,53.04,13.938,8.75,27.319,18.04,41.815,24.6,7.805-1.64,15.611-2.73,23.417-4.92,7.805,4.38,14.5,9.85,23.416,10.94,34.009,6.56,65.231,22.42,99.24,26.79-5.575-13.12-21.743-15.31-31.779-24.06,13.938-.54,27.876,0,41.257.55,7.248,8.75,16.727,13.67,28.434,13.67,3.345,13.67,20.629,14.22,30.664,22.42-8.363-8.2,2.788-12.58,7.806-17.5,7.248,6.02,15.054,11.48,22.859,17.5a41.985,41.985,0,0,1,18.956-11.48c-3.345,3.82-10.593,11.48-13.938,15.31l20.07-.55c-16.168,11.48-37.911,13.67-56.868,16.4,2.788,2.19,8.92,7.11,11.709,9.3-25.647,13.12-34.01-23.51-57.426-21.87-9.478,3.82-13.381,13.12-18.4,21.32,16.169,9.84,34.567,16.41,50.178,27.34-4.46,4.92-9.478,10.39-13.938,15.86,34.009,30.07,82.514,31.71,126,30.62,18.956,0,34.567-11.48,51.293-19.14,5.575-10.93,10.035-22.42,10.035-34.45,10.593-2.73,20.071.55,30.107,4.38-8.363,13.67,6.133,19.14,15.611,25.15,8.363-2.19,16.725-3.83,25.089-6.01-0.558,16.4,16.168,32.8,32.894,24.6,25.089-10.93,7.248-49.21,32.894-59.6,23.974-8.2,47.391-21.32,73.6-19.68q14.217-17.235,28.433-34.45c12.266,4.92,25.647,4.92,38.47,3.28-1.114-7.11-2.23-13.67-2.787-20.78a155.992,155.992,0,0,1,16.726-7.66l1.672,9.3c1.673-1.64,5.018-5.47,6.691-7.11a28.781,28.781,0,0,0-5.576-6.01c20.629-15.31,41.815-30.08,60.214-48.12,22.3-20.78,37.912-47.57,53.522-73.27,11.151,10.39,11.151,24.6,6.691,38.27,8.92-3.82,17.841-7.1,27.319-10.93-2.788-2.74-7.806-8.75-10.593-11.48,15.053-8.21,28.992-18.6,42.372-28.44-3.345-8.75-6.132-17.5-9.478-26.24-5.576,0-11.708.54-17.283,0.54,13.938-16.4,28.991-32.26,40.142-51.4-3.345,8.75-6.133,17.5-5.575,26.8-3.9,8.2-7.806,16.4-11.151,24.6,5.575-6.01,12.266-11.48,15.053-19.14,2.788,2.19,5.576,3.83,8.364,6.02-22.86,25.7-22.86,60.15-26.762,91.31-9.478.55-18.4,1.65-27.877,2.19q-6.69,9.03-13.38,18.05c2.787,1.09,8.92,3.82,11.707,4.92a227.718,227.718,0,0,0-10.035,38.27c25.089,5.47,34.01-24.06,56.868-28.98,27.879-37.73,60.769-82.02,45.719-131.23,0.56-15.86-24.53-16.95-28.43-2.73-2.79-2.19-5.02-4.92-7.81-7.66,42.93-47.57,58.54-110.45,84.19-167.32,6.13-10.39,18.95-17.5,21.18-30.07,1.67-8.2-2.78-18.59,3.91-25.16,13.38-8.2,1.67-24.06,8.36-34.99,16.72-22.42,9.48-51.4,17.84-77.1-13.94-5.47-2.23-21.87-2.79-32.26C1143.25,1550.57,1149.94,1540.18,1152.73,1528.15ZM716.736,930.5h20.628a107.986,107.986,0,0,1-5.575,11.483C723.426,942.524,720.082,937.056,716.736,930.5ZM190.984,949.087c7.806-3.281,10.594-.547,7.806,7.108C190.984,958.928,188.2,956.2,190.984,949.087Zm569.8-.547c11.708,1.093,23.416,3.827,32.894,10.388-2.23,3.828-6.133,10.39-8.362,14.218C776.95,964.944,768.586,957.288,760.781,948.54ZM112.93,984.628c-5.018-2.733-9.478-5.468-14.5-8.2,18.956-5.468,37.355-14.763,57.426-12.577-13.381,23.514-42.93,28.981-65.789,39.371C95.647,993.924,104.01,989,112.93,984.628ZM990.484,1151.4c13.936-3.83,19.516,12.58,23.976,21.87C1003.86,1170.54,984.908,1166.71,990.484,1151.4Zm38.466,58.51c-3.9-11.48-8.92-22.97-12.26-34.45,8.36,5.47,13.94,13.67,19.51,21.87C1033.41,1201.71,1031.18,1205.54,1028.95,1209.91ZM-119,1247.09c-2.23-12.03,8.92-18.04,16.726-25.15C-100.047,1232.88-103.392,1255.29-119,1247.09Zm-71.921,212.16c-8.363,22.97-12.823,47.57-22.3,69.99-2.229-12.57-1.115-25.7,1.116-38.27h-5.576c1.116-7.66,3.345-18.6-7.247-16.96-3.9,15.86-3.346,33.36-10.035,49.22-4.461-36.09,6.69-70.54,10.592-106.08,5.576-22.42,18.956-42.11,28.434-62.89-1.672-1.09-4.46-3.28-6.133-4.37,11.151,1.09,12.266-13.67,18.4-20.78,2.788,32.26-26.762,54.68-28.991,86.4a28.331,28.331,0,0,1,6.69-1.1c-16.727,13.67-22.3,44.84-8.363,63.43,10.036-19.14,14.5-41.01,26.2-59.6C-178.1,1430.27-187.579,1445.58-190.924,1459.25Zm11.15-67.26c-1.672-13.12-2.229-27.34,6.133-38.82C-160.26,1363.56-174.756,1379.96-179.774,1391.99ZM1170.01,1507.37c-1.12,8.75-4.46,17.5-6.13,26.79-5.02-4.92-10.04-10.39-15.06-15.31C1153.84,1514.48,1163.32,1498.62,1170.01,1507.37ZM-202.075,1626.02a243.04,243.04,0,0,1-.557-34.99C-193.154,1601.42-191.482,1616.18-202.075,1626.02Zm1370.965,10.94c0,3.28.56,9.84,0.56,13.12-4.46,1.1-12.82,2.74-16.73,3.28C1157.19,1646.8,1162.2,1640.79,1168.89,1636.96Zm-1366.5,12.58c18.4,1.09-8.363,15.85,0,0h0Zm0.557,13.67c5.576,10.93,7.249,23.51,7.807,35.54C-197.615,1688.91-198.172,1675.24-197.058,1663.21ZM1101.43,1898.33c-7.8-23.51-3.34-48.66,5.58-71.08C1131.54,1844.74,1119.27,1879.74,1101.43,1898.33Zm-1.67,21.87c-2.79,15.86-11.71,30.08-26.2,37.73C1072.44,1940.98,1083.59,1926.76,1099.76,1920.2ZM-37.046,2007.69c-7.806,4.38-13.938-8.75-8.92-14.22C-38.161,1989.1-30.913,2002.22-37.046,2007.69ZM74.46,2085.88c-5.575-1.64-17.283-4.92-23.417-6.56q5.854,9.03,11.708,18.05c-26.762-7.66-47.948-24.61-63.558-47.03,4.46-5.47,8.92-11.48,13.381-16.95C34.318,2050.34,50.486,2072.76,74.46,2085.88Zm832.951-12.57q11.709,1.635,23.417,3.28a47.8,47.8,0,0,1-5.017,6.01c-15.055,3.83-28.992,9.3-44.046,13.67,1.672-8.75,6.69-16.4,12.823-22.96-1.115-1.64-3.9-5.47-5.018-7.11,10.036-2.74,20.071-4.92,30.107-7.66A143.164,143.164,0,0,1,907.411,2073.31ZM151.4,2160.79c-21.185-12.03-46.832-25.15-55.752-48.66,17.84,1.64,28.433,16.95,40.7,27.34C142.479,2145.48,148.612,2152.59,151.4,2160.79Zm740.4-44.83q-4.182,9.015-8.364,18.04c-12.822,4.38-25.646,9.3-38.469,13.67-3.9-6.56-8.363-13.67-12.266-20.23C844.968,2106.66,871.73,2104.47,891.8,2115.96Zm-689.666,45.38c-8.92,2.19-12.266-10.39-7.8-15.86C204.365,2135.09,212.728,2156.97,202.135,2161.34Zm73.594,36.64c-17.283,23.51-68.576,3.82-51.85-25.7C242.834,2176.65,264.578,2179.39,275.729,2197.98Z"/>
</svg>
