<svg xmlns="http://www.w3.org/2000/svg" width="716" height="189" viewBox="0 0 716 189">
  <defs>
    <style>
      .cls-1 {
        fill: #fff;
        fill-rule: evenodd;
      }
    </style>
  </defs>
  <path id="Shape" class="cls-1" d="M3.252,104.692c-4.591-20.7-4.285-42.6,2.3-63,6.887-12.45,14.846-24.151,16.223-38.552,34.589-.451,69.025,7.05,103.767,5.7,3.826,2.55,7.346-1.2,11.172-1.2,6.428-1.5,12.856,2.1,19.285.3,19.131-3,38.415,1.35,57.546-1.5,38.721,2.25,77.443-4.05,116.164-4.05A192.288,192.288,0,0,1,354.346.737c3.979-.15,7.652,3.9,11.632,1.2,15.305,1.05,31.069,1.05,46.374,3.9a25.884,25.884,0,0,0,1.53,2.85c4.286,0.6,9.948,2.7,12.856-1.65,2.6,0.15,5.2.451,7.959,0.75a26.413,26.413,0,0,1-.306,3.3c5.51-5.85,10.866.75,17.6-2.4l-1.071,3c2.3-.45,4.592-0.9,6.734-1.35a18.422,18.422,0,0,0-.459,2.85c11.938,0,24.794-3.45,35.966.75-5.662,1.35-11.478,1.35-16.988,2.7,24.182,1.35,49.741-1.5,73.463,1.95-14.845.75-30-1.5-44.537,1.951,5.2,1.35,11.02-1.2,15.611,1.8,12.856-1.95,26.631-1.35,39.946-1.35v2.4a85.22,85.22,0,0,1,8.724-.75c-0.918.9-2.908,2.7-3.826,3.6,11.784,0.9,23.263-1.95,34.895-2.4-0.306,1.05-.765,3-1.071,4.05,1.53-1.35,3.214-2.85,4.591-4.2,2.449,0,5.051.15,7.5,0.3a12.416,12.416,0,0,1-5.968,2.1c0.152,0.3.152,0.9,0.306,1.2,4.285-.451,8.723-0.75,13.162-0.9-0.459-1.05-1.378-2.85-1.837-3.9a27.4,27.4,0,0,0,4.745,2.25c0.459-.9,1.53-2.7,2.142-3.6a18.76,18.76,0,0,1,.919,5.1c13.621,1.35,27.4,2.4,40.864,4.8,0.153,1.2.153,3.6,0.306,4.8a28.874,28.874,0,0,0,1.989-4.5,24.95,24.95,0,0,1,7.806,3.75c0.306-.6.765-1.95,1.072-2.7,11.631,0.15,23.11-2.85,34.588-.45a356.606,356.606,0,0,1-59.076,5.85c13.468,5.1,28.926.9,43.159,3-1.836.9-3.826,1.8-5.662,2.55-5.663.6-11.479-.3-17.142,0.75a32.845,32.845,0,0,1-2.143,2.7c-16.07,1.35-31.987,2.55-48.21,3.45,0,1.051-.153,3.151-0.153,4.05a8.9,8.9,0,0,1,6.428,1.65c-0.918-.15-2.755-0.451-3.52-0.6-3.061,1.35-6.275,1.35-9.642,1.65l1.224-4.2a73.682,73.682,0,0,1-6.887,5.1c-0.612-.15-1.837-0.45-2.3-0.6-3.979,1.95-8.571.45-12.7,1.8-0.459-.3-1.53-0.9-1.989-1.2-1.072,1.05-2.143,2.1-3.368,3.15,3.673-.3,7.5-0.75,11.173-0.9-0.459,1.95-.765,3.9-1.224,6,1.836,0.3,3.826.6,5.662,0.75-4.285-1.2-5.815-3.751-3.673-7.951,0.919,0.9,2.908,2.55,3.98,3.45,2.754-4.35,8.264-2.85,12.549-3.6,0.46,0.451,1.225,1.351,1.684,1.8,2.908-3,7.347-.75,10.867-1.2-2.755,1.65-6.275,5.4-9.643,3l-3.673,1.8c-0.306-.75-0.765-2.4-1.071-3.3-1.378,2.1-2.755,4.2-3.979,6.3,0.765-.6,2.142-1.8,2.754-2.4,4.133,0.749,8.418,0,12.551.149a35.942,35.942,0,0,0,2.754-3.9c0,1.2.153,3.6,0.153,4.8,8.571-1.95-3.979-6,3.521-6.75,5.2-.15,10.407-0.9,15.764-0.75-4.133,3.15-9.643,1.5-14.54,2.1v5.4a19.1,19.1,0,0,0,6.887-2.55c0.612,0.45,1.684,1.5,2.3,1.95a22.461,22.461,0,0,0,.918-3l3.061,2.4c19.59-.3,39.028-3.45,58.465-4.95-10.254,4.351-22.192,2.251-32.14,7.051-0.612-.3-1.837-0.9-2.6-1.2-6.122.15-12.091,1.5-18.366,0.9-0.765.75-2.143,2.4-2.755,3.15l-3.061-3c-0.612.45-1.683,1.35-2.3,1.8-2.6-1.2-5.05.3-7.346,1.35-1.072-.45-2.3-0.9-3.367-1.35-1.531,1.2-3.214,2.4-4.592,3.6,3.521-.15,7.04-0.3,10.714-0.3-0.919,1.2-2.908,3.3-3.827,4.5,4.9,0.6,3.98-8.25,9.031-4.8,1.071-.3,3.061-1.05,4.132-1.35-1.071,2.4-3.826,2.7-6.122,3.75,2.449,0.6,4.9,1.951,7.653,1.35a28.577,28.577,0,0,1-.307,3.6c2.3-1.8,4.592-4.8,7.959-3.15-0.612.75-1.837,2.4-2.449,3.15,0.612,0.15,1.837.3,2.449,0.451,0.153-2.1,1.683-3.3,3.061-4.5,3.214,0.75,6.581,1.051,9.795,1.5-0.612.75-1.99,2.25-2.6,3,0.918-.15,2.908-0.3,3.979-0.451a18.034,18.034,0,0,1-.306-2.85c8.571-.75,16.836-2.1,25.406-2.85-2.6.9-5.2,1.8-7.805,2.85-5.2-.45-10.408.9-15.611,0.75,0.459,0.9,1.224,2.55,1.683,3.45,9.183-.9,18.519-2.1,27.855-1.5-6.581,1.8-15.917.451-20.2,6.751-0.459-.6-1.225-1.951-1.684-2.551-2.449.15-4.9,0.3-7.346,0.6l1.377,2.7-3.979-.3,0.919-2.4a52.852,52.852,0,0,1-6.582,3.15c-2.142.451-4.132,1.05-6.275,1.5-0.306-1.2-1.224-3.45-1.53-4.5-0.153,1.2-.612,3.6-0.765,4.8a5.682,5.682,0,0,1-4.592-4.2c-0.918.451-1.989,1.051-2.908,1.5l3.367,1.2c-2.907,1.5-5.816,2.4-6.581-1.951-1.224,2.551-2.3,5.851-5.969,5.1,0.765-1.05,2.3-3,3.061-4.05-0.918.6-2.908,1.65-3.826,2.25-1.53.9-3.214,1.8-4.745,2.7-0.612-.45-1.836-1.5-2.6-1.95a11.044,11.044,0,0,0-6.735,4.2c3.061,0,6.276-.3,9.03,1.2-2.448.6-5.05,1.05-7.5,1.65,0.765,3.3,3.367,1.95,5.663,1.35,6.887,1.5,13.927-1.5,20.355.45,1.99-.3,3.98-0.45,5.969-0.6a39.213,39.213,0,0,1-5.51,1.8c-0.306,1.8-.765,3.6-1.071,5.4-1.224-1.95-1.377-4.2-1.684-6.449-1.836.6-3.52,1.35-5.356,1.95,0.918,0.75,2.6,2.25,3.367,3-2.449.15-4.9,0.15-7.346,0.3,1.071-1.35,3.214-3.9,4.285-5.1-4.285.75-8.724,1.05-12.244,3.751,1.836,0.9,3.673,1.8,5.51,2.85-3.979.6-5.816-3.151-7.959-5.7-1.071,1.05-2.142,2.1-3.061,3.15,1.684,0.451,3.367,1.051,5.051,1.651-4.744.75-9.795,3-14.54,0.9-0.612,1.35-1.377,2.7-1.989,4.05-5.663-4.95-13.163-.75-19.744-1.651a26.357,26.357,0,0,1-5.816,1.95c-0.612.451-2.142,1.35-2.754,1.8a38.8,38.8,0,0,0-5.816-2.25,26.408,26.408,0,0,1,.306,3.3c-0.766.15-2.449,0.3-3.367,0.449,0.153-2.7-.307-5.4-2.6-7.049,0.612,4.05-2.143,4.95-5.357,5.25,0.306,2.7.765,5.4,1.225,8.1l5.05-1.8c-1.989-1.95-3.52-3.9-.612-6,1.836,3.6,5.969,1.65,9.03,1.95-2.755,3-6.275,9.3-.765,2.7,0.918,1.35,2.908,2.7,2.142,4.651-6.581-1.2-13.315-.15-19.59,1.8,12.244,1.95,24.488-4.8,36.273-1.2,4.744-2.1,9.948-1.95,15-1.2a11.538,11.538,0,0,1-.306-2.1c-4.438,1.5-4.132-2.7-4.285-5.7-3.826.451-7.959,1.5-11.632-.6a85.241,85.241,0,0,1,8.724-.449c-0.918-.6-2.449-1.8-3.367-2.551,1.071,0,3.367-.149,4.438-0.149l-1.377,2.249c2.6-.149,5.051-0.3,7.5-0.449a3.516,3.516,0,0,1,4.133-1.2c-1.072,1.5-2.3,3-3.367,4.5,2.295-.3,4.744-0.6,7.04-0.9a31.086,31.086,0,0,1-3.52-2.7,123,123,0,0,1,16.682-.9c0,0.3.153,0.9,0.153,1.2-4.592.6-10.866-.6-13.315,4.2,5.357,2.25,10.254-4.8,14.233.75-3.061.3-6.274,0.45-9.336,0.45,0.46,1.2,1.225,3.45,1.684,4.5,0.918-.15,2.908-0.45,3.979-0.6a25.018,25.018,0,0,1,3.979-3,39.574,39.574,0,0,1-1.071,4.05,121.233,121.233,0,0,0-14.692,1.2c0.306-.9.765-2.55,1.071-3.3,1.377,0.15,4.132.451,5.357,0.6a25.627,25.627,0,0,0-1.99-3.45c-3.367,0-6.887,0-10.1,1.8,1.836,1.35,3.673,2.55,5.663,3.9-12.091,0-24.029,1.5-36.12,2.85-1.224.75-2.6,1.65-3.826,2.4-5.51.3-11.02,1.051-16.377,0.3-0.459.3-1.377,0.751-1.836,1.05-2.755-.149-5.663-0.149-8.265-1.35-2.449.3-5.05,0.3-6.275,2.7,10.255,1.5,20.509-1.95,30.763-.9,5.357,0.449,11.02-3.6,15.917.149,0.306-.749.918-2.25,1.225-3.15a61.471,61.471,0,0,1,4.9,3.9l-3.061,1.65c1.99,1.5,4.132,3.3,6.122,4.8-0.918-3-1.837-5.851-2.6-8.851,1.99-.15,3.98-0.15,6.122-0.3,1.53,0.3,2.908.451,4.439,0.75a8.389,8.389,0,0,0-.153-1.95c6.428-.3,12.55-1.35,18.978-2.25l-1.072,3.3c1.072,0,2.908.15,3.98,0.15a78.876,78.876,0,0,0-6.888,4.8c-2.755-1.8-6.121-4.95-5.816.75-0.918-.9-2.754-2.7-3.673-3.45-4.285,0-8.877-.45-12.7,2.1a16.811,16.811,0,0,0,5.051,2.851c-0.459,1.049-1.377,3.3-1.837,4.5,2.6-1.95,5.2-3.9,8.571-3.9a19.943,19.943,0,0,0,.306-3c2.755,4.65,7.653,3.3,12.091,3.151-1.683.749-5.05,2.1-6.734,2.849,5.051,1.65,10.56.6,15.764,0.6,0.765,0.9,2.3,2.85,3.061,3.9-1.837-.15-3.826-0.3-5.663-0.3-2.449-.3-4.744-0.449-7.193-0.6,2.908,2.851,6.734,7.651,10.56,3,1.071,0.6,1.99,1.35,3.061,1.95a52.907,52.907,0,0,1,6.887.3c-5.969,1.2-12.7-.15-18.212,2.7-21.121-2.25-42.089,2.55-63.057,3v1.05a125.687,125.687,0,0,0,13.01-.45c0.459,0.3,1.224.9,1.683,1.2,25.559-3.45,52.19-3.9,77.9-3.45-2.6.9-5.357,1.65-8.112,2.4-4.438-3-8.417,0-12.244,2.55l0.307-2.4c-0.919-.15-2.6-0.6-3.368-0.75,0.766,0.6,2.3,1.95,3.061,2.7-6.274.75-13.315-.45-18.978,3.15-12.091-1.35-24.794.9-37.037,1.65,0.918,2.1,1.683,4.5,3.979,5.851,0.153-1.2.153-3.45,0.306-4.651a38.021,38.021,0,0,1,3.979,2.85c9.489,3.6,18.978-6,27.7-.3,4.9-6,13.315-1.8,19.9-2.7-2.908,1.649-9.029-1.951-9.182,2.249,4.438,0.451,9.029,0,13.468-.149q-0.459-1.8-.919-3.6c0.46,0,1.531.15,2.143,0.15l-1.071,2.4c21.58,2.55,43.313-.15,64.893-0.3-26.325,6.6-54.945,1.95-81.882,6.9-16.529.151-34.742-2.249-50.2,3.451,27.549,0,55.1-2.4,82.647-.6a17.133,17.133,0,0,1,6.734,1.05c-12.244,2.55-24.794,1.5-37.038,3.45-1.53-.6-2.908-1.2-4.438-1.8a26.059,26.059,0,0,0,.153,3.451h-1.378l-0.459-1.951h-3.061l-0.918-.45a40.776,40.776,0,0,1-4.133-.9c1.072,1.05,2.143,1.951,3.215,2.85-2.143,1.8-5.663.75-8.265,0.75-5.663,2.1-11.479-2.55-16.835.75-1.99-.3-3.827-0.15-5.357,1.35-0.766-1.049-1.684-1.95-2.449-2.85-1.224,1.051-2.449,2.1-3.52,3.15-1.684-.9-3.367-1.95-5.051-2.85l-0.153,3c-0.918-.9-1.99-1.649-2.908-2.4-3.52.9-7.193,1.05-10.56,2.7-1.684-1.049-3.214-2.1-4.9-3.149-3.673,6.449,3.52,8.549,8.724,6.9v3c-5.969-.151-12.244.6-18.06-1.351-25.406,1.05-50.812-2.85-75.912-1.2l-3.673-1.8c-0.918.6-2.449,1.8-3.367,2.25-1.99-1.2-2.3-3.149.153-4.2-3.214-3.9-8.265-2.7-12.55-2.1,3.214,1.35,7.04,1.5,10.407,1.65-6.734,4.2-15.458,1.8-22.957,1.5l-0.459-4.5c-0.153,1.2-.307,3.45-0.46,4.65-4.744.6-10.254-1.35-14.386,1.65a29.9,29.9,0,0,0,15,.751c-0.306,1.049-.766,3.149-1.072,4.2-6.122-2.251-12.856,0-18.825-3-0.918.75-1.683,1.35-2.6,2.1-7.958-.3-15.917-3-23.875-1.2-8.571-.9-17.142-0.451-25.712-1.35-2.143-.9-4.286-1.651-6.276-2.55-3.06,3.149-7.805,1.2-11.631,1.049l0.612,3.15a29.817,29.817,0,0,0-1.53-3.15c-5.2-.9-10.1,1.05-15.305.3-3.674,1.8-9.948,1.351-11.479-2.7v-0.3l-0.918,3-1.837-4.2c-7.193-.75-14.54,1.05-21.733.15,6.428,2.4,14.081.6,20.815,2.85,0.153,0.451.459,1.5,0.612,1.95-11.02-2.55-24.029,4.651-33.058-4.5,0.305,1.5,1.071,4.351,1.53,5.85-3.061-.749-7.04,0-9.336-2.7l3.826-.149c0-.3.153-1.051,0.153-1.351-1.224.45-3.367,1.2-4.591,1.65a32.309,32.309,0,0,0-1.072-3.6l-2.295,4.95c-1.531-.3-3.061-0.449-4.439-0.75,0.153,0.6.612,1.8,0.765,2.4-1.683-.151-3.52-0.151-5.2-0.151-3.827-2.549-8.418-3.45-12.55-5.55,0.765,0.45,2.448,1.5,3.367,2.1l2.754,4.951c-4.591-.15-9.182.15-13.468-1.651,1.684-.3,5.051-0.749,6.734-1.049a14.774,14.774,0,0,0-7.04-2.55c-0.612.9-1.683,2.55-2.3,3.3a34.928,34.928,0,0,0-7.806-3l0.612,4.2a25.581,25.581,0,0,1-8.265-.45l0.919-2.55c-1.224-.451-3.367-1.5-4.591-1.951,0.458,1.35,1.377,3.9,1.836,5.251-1.224-1.051-3.52-3-4.744-4.05,0.459,0.9,1.224,2.7,1.683,3.6q-7.118-.673-14.234-1.8c0.918-.9,2.755-2.55,3.673-3.451a6.412,6.412,0,0,0-4.591,3.751c-8.111-2.85-16.835-3-25.406-3a46.78,46.78,0,0,0,5.51,2.7c-10.1.45-20.509,2.1-30.457-.151,0.306-1.2.765-3.45,0.918-4.65l-1.836,4.5c-12.244.75-24.488,0.3-36.579-2.551l-0.612,3.6c-0.459-1.35-.919-2.85-1.531-4.2a35.377,35.377,0,0,0-11.172,1.651c-7.041-3.751-14.846,1.2-22.039-1.8-2.3,1.05-4.745.3-7.193-.45-14.693,1.95-26.63-9.451-41.17-8.7a15.6,15.6,0,0,1-16.835-13.8c-8.877-9.151-16.835-19.8-21.427-31.652C0.65,118.643,6.006,111.293,3.252,104.692Zm615.563-50.7c1.836-.3,2.755-1.35,2.449-3C619.274,49.19,615.754,52.939,618.815,53.99Zm-11.02-.15c-4.591-2.55-.153,5.1,0,0h0Zm-10.1,2.1c2.3-.3,5.2.45,6.428-1.95l-6.428.45v1.5ZM666.26,77.091c-0.918.15-2.908,0.451-3.826,0.6C661.516,81.891,673.912,80.091,666.26,77.091Zm-43.313-6.9c-4.438-2.249,0,5.1,0,0h0Zm0.153,31.5c-4.438-2.55-.459,4.8,0,0h0Zm1.072-4.35-4.439.15a29.935,29.935,0,0,1,2.143-5.1c-1.072,0-3.061.15-4.133,0.15,0.153,2.249.306,4.65-1.836,6.15C618.662,99.442,621.876,99.591,624.172,97.342Zm-17.754,6.9c2.908-.3,5.969-0.6,8.877-0.75-0.153-.9-0.459-2.55-0.612-3.3-1.072.75-1.99,1.35-3.061,2.1-0.307-2.1-.766-4.2-1.072-6.3-1.836.451-3.673,1.05-5.662,1.65,1.224,0.149,3.826.6,5.2,0.9C609.02,100.492,607.642,102.441,606.418,104.242Zm-1.837-1.35c-4.591-2.25.153,4.95,0,0h0Zm-11.631-5.55c-0.919,1.649-1.99,3.15-3.061,4.8,0.918-.451,2.754-1.5,3.673-1.951a38.363,38.363,0,0,0,4.285.3C596.163,99.442,594.48,98.392,592.95,97.342Zm4.9,6c-4.132.15-8.877-.45-11.938,2.7C590.042,105.892,594.327,105.742,597.847,103.342Zm-30.457,9.451a32.706,32.706,0,0,0,3.52.45c0.153-.751.153-2.4,0.307-3.151-1.531.75-3.215,1.65-4.745,2.4l-0.765-2.7a77.263,77.263,0,0,0-2.755,8.4C564.942,116.842,566.931,115.343,567.39,112.793Zm-3.979,8.7c-4.438-2.4-.459,4.95,0,0h0Zm-7.959-7.65c0.766,3.149,5.51.9,4.745-1.651C559.279,109.943,554.84,111.293,555.452,113.843Zm77.29,31.651c2.755-.45.612-3.9-1.071-4.351C627.233,139.494,629.528,145.944,632.742,145.494Zm-26.477-3.151c-6.734-1.5,1.377,7.051,0,0h0Zm-0.613-8.249c-1.071-3.151-6.734-.3-7.652,1.349C600.3,135.593,604.275,136.493,605.652,134.094Zm-12.09-.3c2.755-1.049,5.816-1.2,8.264-3C598.765,131.393,591.419,128.093,593.562,133.793Zm-6.122,3.451c0.612-.3,1.683-1.05,2.295-1.35l-1.377-1.8c1.071-1.051,2.143-2.1,3.214-3.3a17.851,17.851,0,0,0-7.346,2.551l3.52,0.3A26.371,26.371,0,0,1,587.44,137.244Zm-12.091-1.2c-4.592-2.251-.153,4.95,0,0h0Zm27.7,18.3c-4.439-2.25-.153,5.1,0,0h0ZM490.866,21.139c3.673,0.149,8.264,1.649,11.172-1.351C498.365,19.639,494.386,19.488,490.866,21.139ZM502.345,166.2c-4.286-2.7-.46,4.95,0,0h0Zm3.366,7.65c-5.356,0,2.143,4.5,0,0h0Zm2.755-148.207c-7.04-1.649-.612,6.6,0,0h0Zm10.867-3.3c-5.357.15,1.99,4.65,0,0h0Zm9.03,0.15c-5.357,0,2.295,4.35,0,0h0Zm15.152,106.054c-4.592-2.25-.153,5.1,0,0h0Zm37.038,30.451c-5.357,0,2.449,4.351,0,0h0Zm5.662,0c-4.744-2.1-.153,4.951,0,0h0Zm-10.56,5.551c4.132-.45,8.265-0.45,12.4-0.9-2.908-2.551-6.887-.451-10.254-0.3-0.919-2.251-2.449-3.75-5.051-3.75C573.665,161.245,574.584,162.9,575.655,164.545Zm-4.745.3c-0.918-1.5-1.683-2.85-2.448-4.351a6.665,6.665,0,0,1-1.684-.3c-0.306,2.55-2.6,3.15-4.744,3.75C565.094,164.245,568,164.7,570.91,164.845ZM554.534,181.2a10.423,10.423,0,0,0,7.194.75c1.836-6.15-5.051-3.749-8.418-4.35Zm-24.641-.449c7.347-.9,14.846,1.649,22.039.3-0.153-4.349-7.5-1.2-10.866-3.75-5.51,3.6-12.7.3-18.978,2.1-0.306-.9-0.918-2.851-1.225-3.9-0.306,0-1.224-.149-1.53-0.149-1.225,5.7-8.112,2.85-11.785,1.649l0.459,2.4c-1.53-.75-4.744-2.1-6.275-2.851C508.466,183.9,520.863,178.8,529.893,180.746Zm-33.671-2.55a12.572,12.572,0,0,0,5.663-1.8c-1.989-.9-3.979-1.649-5.969-2.55C496.069,175.346,496.069,176.7,496.222,178.2ZM491.478,23.689c-4.438-2.25-.153,4.95,0,0h0ZM477.4,171.9c0-1.95-3.52-2.55-4.9-1.35C472.5,172.645,476.02,173.1,477.4,171.9ZM474.183,17.988c1.99-2.4-1.989-5.1-3.979-3.15C468.367,16.938,472.5,19.639,474.183,17.988ZM462.552,175.2a10.267,10.267,0,0,1,5.968-.9c-0.612-2.85-5.968-1.5-8.264-3.15a3.814,3.814,0,0,0-4.438-1.5c1.377,0.9,2.6,1.65,3.979,2.4l-5.051.6A23.78,23.78,0,0,0,462.552,175.2Zm-23.417,1.65c-4.438-2.4-.306,4.95,0,0h0Zm-24.488,0c1.837,0.75,3.827,1.5,5.663,2.25a0.517,0.517,0,0,0-.153-0.3c3.214,0,6.275.149,9.336,0C425.208,176.1,419.7,177,414.647,176.845Zm6.734,9.6c0.919-1.35,1.684-2.7,2.449-4.05a41.66,41.66,0,0,0,8.571,1.951c-1.53-1.35-3.061-2.551-4.591-3.751-2.449-.15-5.969,1.5-7.347-1.2-4.591,1.8-9.8,0-14.539,1.2C411.127,181.945,418.474,180.746,421.381,186.445Zm-47.445-5.85c0-2.7-6.275-3.3-7.193-.9A39.322,39.322,0,0,0,373.936,180.6Zm-25.253-1.949c4.592-.3,10.1,4.2,13.469-0.3-3.062-3.15-6.888-4.95-11.326-4.5,1.224,1.05,3.52,3,4.744,4.05-3.673-.449-7.193-0.6-10.866-1.049-0.612-1.2-1.072-2.4-1.683-3.6-0.307,6.6-7.806,3.451-12.244,4.2C336.592,179.845,342.714,178.945,348.683,178.646Zm-15.151-4.8c-5.663-3.3-1.378,5.4,0,0h0Zm-61.22,6.3c-5.969,3,6.428,4.349,0,0h0Zm-33.518.9c-4.439-2.249,0,4.951,0,0h0Zm-61.526.3c-5.663-3.451-1.53,5.4,0,0h0ZM423.065,5.988c-5.51-.15,2.449,4.35,0,0h0Zm133.918,11.55c-1.531-.9-5.357-0.9-5.357,1.35C553.157,19.938,556.524,19.338,556.983,17.538Zm12.4,6.75c3.061,0.3,6.275.45,9.336,0.45C576.267,22.788,571.676,21.588,569.38,24.289Zm100.247,44.4c-2.3.9-4.591,1.8-6.887,2.849C665.8,72.441,669.474,72.741,669.627,68.691Zm-9.642,4.65c7.653-5.55-7.04-3.9,0,0h0Zm16.529-3.151c-5.815-3.15-1.683,5.251,0,0h0Zm-23.722.15c-5.2.3,2.449,4.5,0,0h0Zm10.866,22.351c1.837,0.9,6.122,1.2,6.734-1.051C668.556,90.742,664.576,90.592,663.658,92.692ZM658,95.242l2.449-1.2c-0.306-.6-1.071-1.951-1.53-2.7C657.536,92.241,657.23,93.591,658,95.242Zm-2.754-2.4c-5.2.451,2.448,4.5,0,0h0Zm-4.745,1.5-0.153-1.5c-4.286-.149-8.877-0.6-12.7,1.5C641.925,95.992,646.211,94.341,650.5,94.341Zm11.785,2.7c0,2.1,5.663,1.8,5.816-.149A6.154,6.154,0,0,0,662.281,97.041Zm12.856,1.5c-4.286-2.4-.306,5.1,0,0h0ZM598,115.943c3.061-6.151-7.5-5.251-9.489-1.95l0.153,0.749a44.1,44.1,0,0,0,4.438.3c-1.071,1.35-2.142,2.7-3.213,4.2,7.8-1.95,16.223-.3,23.569-3.6A75.953,75.953,0,0,0,598,115.943Zm40.4,17.7c-5.051.451,2.6,4.351,0,0h0Zm48.976,10.05c-4.439-2.4-.459,4.951,0,0h0Zm-30.151,2.4a8.269,8.269,0,0,0,7.04-.15C663.505,143.994,657.689,143.843,657.23,146.094Zm-58,15.3a11.24,11.24,0,0,0,8.264-.451C606.418,158.844,600.449,159.445,599.225,161.4Zm-13.01,24.3c-5.662-3.151-1.53,5.4,0,0h0Z"/>
</svg>
